<?xml version="1.0" encoding="utf-8"?>
<svg version="1.1" xmlns="http://www.w3.org/2000/svg" xmlns:xlink="http://www.w3.org/1999/xlink" x="0px" y="0px" viewBox="0 0 1000 1000" enable-background="new 0 0 1000 1000" xml:space="preserve">
<g><path d="M863.7,289H785C774.6,136.2,653.2,30.4,505.2,30.4c-148,0-269.4,105.8-279.8,258.6h-78.3C74.5,289,10,339.6,10,411.7v419.2c0,72.1,64.5,138.7,137.1,138.7h716.6c72.6,0,126.3-66.6,126.3-138.7V411.7C990,339.6,936.3,289,863.7,289L863.7,289z M276,914h-56V344.5h56V914z M505.2,86c117.1,0,213.5,78,223.8,203H281.4C291.7,164,388,86,505.2,86L505.2,86z M780,914h-56V344.5h56V914z"/></g>
</svg>