<?xml version="1.0" encoding="utf-8"?>
<svg version="1.1" xmlns="http://www.w3.org/2000/svg" xmlns:xlink="http://www.w3.org/1999/xlink" x="0px" y="0px" viewBox="0 0 1000 1000" enable-background="new 0 0 1000 1000" xml:space="preserve">
<g><g><path d="M266.7,80.4c17.9,32.2,44.3,58.9,59.2,94.4c7.1,16.8,32.2,18.1,54.3,10.8c40-13.3,32.6,33.7,53.5,47.2c10.2,6.6-2.7,19.1-14.6,21.7c-66.1,14.8-37.4,34.9-4,57c75.3,50.1,120.2,128.8,176.7,195.7c41.8,49.6,1.6,121.2,18.2,181.8c9.3,33.8-4.7,58.4-41.9,68.7c-59.9,16.5-84.2,84.1-143.2,103.3c-3.7,1.2-7.6,14.1-7.3,14.2c50.9,28-1.5,79.1,27.7,114.8c6.8-3.1,15.2-5.5,21.9-10.3c68.3-49,124.3-114.7,204.5-147.7c22.6-9.1,45.1-23.8,51.1-50.8c24.1-106.6,14.1-209.2-65.6-288.8c-45.6-45.6-90.2-90.7-130.9-140.9c-36.6-45.2-28.8-76.7,6-116.3c32.2-36.6,66.1-70,113.4-101c-69.1-20.7-89.1-30.7-84.5-55.1c7.1-36.6-7.1-49-36.4-41.9c-30.4,7.5-43-45.8-70.7-19.9c-47.3,44.1-102.3,38.2-158.5,33.8C274.2,49.4,262.1,72,266.7,80.4z"/></g><g></g><g></g><g></g><g></g><g></g><g></g><g></g><g></g><g></g><g></g><g></g><g></g><g></g><g></g><g></g></g>
</svg>