<?xml version="1.0" encoding="utf-8"?>
<svg version="1.1" xmlns="http://www.w3.org/2000/svg" xmlns:xlink="http://www.w3.org/1999/xlink" x="0px" y="0px" viewBox="0 0 1000 1000" enable-background="new 0 0 1000 1000" xml:space="preserve">
<g><g><path d="M945.6,54.6C885.2-9,797,19.4,739.8,63.1c-8.5,6.6-20,6.5-28.6,0c-57.2-43.7-145.4-72-205.8-8.5C464.3,97.9,452,160,467.9,217.9c-2.9-3.8-6-7.4-9.3-10.9c-46.3-48.7-121.4-45.7-191.3,7.7c-7.4,5.7-17.4,5.7-24.9,0c-69.9-53.4-145-56.4-191.3-7.7c-57,60-54.8,158.6,5.9,225.5l162.1,153.9c5.8,5.3,18.8,8.8,18.8,10.9v377.5c0,4.2,3.8,7.7,8.1,7.7c4.2,0,8.1-3.4,8.1-7.7V599.8c18.4-0.1,25.3-4.6,35.3-13.6l29.7-27.7c0.1,0.1,0.3,0.2,0.4,0.4l141.9,134.1c6.6,6,7,9.9,23.1,11.5v270.5c0,4.2,2.7,7.7,6.9,7.7c4.2,0,6.9-3.4,6.9-7.7V704.5c18.4-1.4,18.6-5.3,25.8-11.8l143.1-134.6c21.9-24.1,35.5-53.3,39.8-82.9c2.4,0.9,7.9,1.6,7.9,2.1v497.6c0,4.2,2.7,7.7,6.9,7.7c4.2,0,6.9-3.4,6.9-7.7V478.1c18.4-0.9,23.8-5.4,33.3-14l177.7-167.4C1004.4,225.6,1007.1,119.2,945.6,54.6z M495.8,277c4.9,7,10.1,13.9,16,20.4l42.6,40.3c-17.4,6.3-34.9,15.8-51.5,28.5c-3.6,2.7-8.2,3.5-12.5,2.8C500.8,338.2,502.5,306.4,495.8,277z M269.1,563.7c-8.3,7.5-20.2,7.4-28.2,0.2L79,411.1c-49.1-54.2-51.6-134.6-5.5-183c42.3-44.5,107.5-21.9,150.5,11c18.2,13.9,43.7,13.9,62,0c43-32.9,108.2-55.5,150.5-11c30.3,31.9,40.1,79.2,27,124.5c-7.9-4.7-16-8.8-24-12.1c0.8-5.9,1.1-12.6,1.2-20.8c0.4-31-3.1-44.2-25.5-66.2c-7.2-7.1-19.3-10.9-28.3-4.3c-4.5,3.3-7.5,8.7-8.2,14.8c-0.7,6.5,1.2,12.7,5.1,17.2c10.7,12.1,11.5,24,11.5,38.4c0,3.5-0.1,6.7-0.4,9.9c-2.9-0.2-5.7-0.4-8.5-0.4c-28,0-52.9,10.6-71.9,30.6c-43.6,45.9-48,117.4-13.5,174.1L269.1,563.7z M395.2,271c-1.1-1.2-1.6-3.3-1.4-5.4c0.2-1.8,0.9-3.3,2-4.1c1.7-1.3,5.8,0.1,8.6,2.9c18.1,17.9,21.2,26.1,20.9,55.1c-0.1,6.1-0.3,11.1-0.7,15.6c-4.9-1.5-9.8-2.8-14.6-3.7c0.4-3.9,0.5-7.8,0.5-11.8C410.5,303.2,409.4,287.1,395.2,271z M645.8,536.7L504.2,670.2c-6.3,5.7-16.1,5.4-21.9,0.2l-140.9-133c-42.1-46.4-44.2-115.3-4.8-156.7c13.3-14,30-21.1,49.7-21.1c22.6,0,48.8,9.7,73,26.7c1.5,1.9,3.3,3.5,5.7,4.5c0.4,0.2,0.8,0.1,1.2,0.3c16.3,11.7,39.3,11.6,55.4-0.7c25.7-19.6,54.4-30.8,78.8-30.8c19.7,0,36.4,7.1,49.7,21.1C689.3,422.2,687.1,491.1,645.8,536.7z M918.2,275.3L741.7,441.6c-9.4,8.5-23.2,8.5-32.6,0c-0.3-0.3-0.7-0.4-1.1-0.6c-2.6-30.1-14.5-58.8-35.9-81.4c-19-20-43.9-30.6-71.9-30.6c-3.2,0-6.5,0.2-9.8,0.5L533.7,276c-53.8-59.3-56.4-147.3-6-200.3c46.4-48.8,117.9-24.2,165,11.8c19.3,14.8,46.4,14.8,65.7,0c47.1-36,118.6-60.6,165-11.8C973.9,128.7,971.2,216.8,918.2,275.3z"/><path d="M899.2,97.1c-8.9-8.8-22.5-11.1-31.1-4.9c-5,3.6-8.2,9.5-9,16.2c-0.8,7.1,1.3,14,5.6,18.9c12.5,14.1,13.5,28.1,13.4,44.8c-0.1,16.3-1,27.2-13.4,41.2c-4.3,4.9-6.3,10.8-5.7,16.6c0.6,5.8,3.8,11.1,9,14.8c4.5,3.3,9.9,5.1,15.4,5.1c6,0,11.6-2.2,15.7-6.3c24.3-24,28.3-34,28.9-71.3C928.5,137.1,924.6,122.1,899.2,97.1z M888.5,232.7c-1.6,1.5-3.6,1.9-5,1.9c-2.2,0-4.5-0.8-6.4-2.1c-1.1-0.8-2.6-2.2-2.8-4.1c-0.2-1.5,0.5-3.2,1.9-4.8c15.9-17.9,17.2-33.2,17.3-51.3c0-18.7-1.3-36.9-17.3-55c-1.4-1.6-2.2-4.4-1.9-7.1c0.3-2.4,1.3-4.4,2.7-5.5c0.7-0.5,1.6-0.8,2.6-0.8c2.7,0,6.2,1.7,8.7,4.2c20.8,20.5,24.7,30.7,24.3,64.1C912.3,205.4,909.8,211.6,888.5,232.7z"/><path d="M601,395.6c-4.3,3.2-7.2,8.3-7.8,14.1c-0.7,6.1,1.1,12.1,4.9,16.4c9.8,11.1,10.6,22.2,10.5,35.4c-0.1,12.8-0.6,21.3-10.5,32.5c-3.8,4.2-5.5,9.4-4.9,14.6c0.6,5.1,3.4,9.7,7.9,13c3.9,2.8,8.6,4.3,13.3,4.3c5.3,0,10.2-1.9,13.8-5.5c19.9-19.6,23.4-28.4,23.9-58.9c0.3-29.1-2.9-41.4-23.8-62C620.4,392.1,608.5,390.2,601,395.6z M617.3,509.7c-0.9,0.9-2.1,1.1-3,1.1c-1.5,0-3.1-0.5-4.3-1.4c-0.7-0.5-1.6-1.3-1.7-2.3c-0.1-0.8,0.3-1.8,1.2-2.8c13.2-15,14.3-27.6,14.4-42.6c0-14.8-1-30.5-14.4-45.6c-0.9-1-1.4-2.8-1.2-4.6c0.2-1.5,0.8-2.8,2.9-3.8c1.8,0,4.3,1.2,6,3c16.7,16.5,19.6,24.1,19.3,50.9C636.3,488.1,634.3,493,617.3,509.7z"/></g><g></g><g></g><g></g><g></g><g></g><g></g><g></g><g></g><g></g><g></g><g></g><g></g><g></g><g></g><g></g></g>
</svg>